<?xml version="1.0" encoding="utf-8"?>
<!-- Generator: Adobe Illustrator 21.1.0, SVG Export Plug-In . SVG Version: 6.00 Build 0)  -->
<svg version="1.1" id="Layer_1" xmlns="http://www.w3.org/2000/svg" xmlns:xlink="http://www.w3.org/1999/xlink" x="0px" y="0px"
	 viewBox="0 0 1366 768" style="enable-background:new 0 0 1366 768;" xml:space="preserve">
<style type="text/css">
	.st0{fill:#FFFFFF;}
</style>
<g>
	<g>
		<path class="st0" d="M432.1,528c0-95.6,0-191.2,0-286.9c167.8,0,335.7,0,503.8,0c0,95.6,0,191.2,0,286.9
			C768,528,600.1,528,432.1,528z M607.8,424.7c4.1,11.1,1.5,20.5-6.7,26.8c-31.3,23.8-77.6,24.3-109.8,1.1
			c-3.6-2.6-6.9-5.6-10.6-8.6c1.9-2.2,3.5-3.6,4.6-5.4c0.9-1.5,1.3-3.3,1.9-5c-1.7,0.5-3.6,0.7-5,1.6c-1.9,1.2-3.4,3-5.1,4.5
			c-0.7-0.5-1.2-0.7-1.5-1c-2.2-2.2-4.6-2.9-7-0.7c-2.6,2.4-1.4,4.8,0.6,7c1.8,1.9,3.6,4,5.5,5.8c17.3,16,37.8,25.2,61.3,27.5
			c2.8,0.3,4.8,0.9,4.8,4.4c-0.1,3.1,0.2,5.8-4.2,6.5c-3.7,0.6-7.4,2.1-10.8,3.8c-6.7,3.2-11.8,8-13.4,15.8c-0.9,4.6,0.6,7,5.2,7.1
			c18.7,0.1,37.3,0.1,56,0c3.8,0,6-2.5,4.9-5.8c-1.5-4.4-3.3-9.6-6.7-12.2c-4.9-3.9-11.2-6.5-17.2-8.4c-4.1-1.3-4.1-3.3-4.2-6.5
			c-0.1-3.8,2.2-4.2,5.1-4.5c16.2-1.6,31.1-6.7,45-15.3c2.5-1.5,5-2.9,9.2-5.3c0,7.8,0,14,0,20.3c0,3.6-1.7,5.1-5.3,4.9
			c-3-0.2-6,0-9,0.1c-6.6,0.1-9.1,2.8-8.2,9.4c1.5,11.2,7.4,19.3,18.3,22.8c4.8,1.6,10.1,2.3,15.2,2.3c78,0.1,156,0.1,233.9,0.1
			c2.2,0,4.3,0,6.5-0.2c15.3-1.4,25.8-11.7,26.9-26.1c0.4-5.2-1.9-7.9-7-8.2c-3.5-0.2-7-0.3-10.5-0.1c-3.6,0.1-5.1-1.1-5.1-4.9
			c0.1-36.8,0.2-73.6,0.2-110.5c0-14.2,4.4-26.1,15.4-35.9c5.9-5.2,10.8-11.9,15-18.6c7.7-12.2,9-25.2,2.3-38.5
			c-8.8-17.4-30.1-27.1-50-22.8c-19.2,4.1-32,18.1-32,36.8c0,8.6,2.4,17.4,4.5,25.9c2.4,9.7,2.7,9.8-7.2,9.8
			c-56.2,0-112.3-0.1-168.5,0.1c-6.4,0-10.7-1.8-14.4-7.4c-4.4-6.6-10.1-12.3-15.8-18c-1.2-1.2-4.3-0.5-6.6-0.7
			c0,2.2-0.1,4.5,0.1,6.7c0.1,0.7,0.9,1.3,1.5,2.2c-2,2.1-3.9,3.9-5.5,6c-0.7,1-0.6,2.6-0.8,3.9c1.3-0.2,3,0,4-0.7
			c2.2-1.5,4.2-3.5,6.4-5.5c2,2.1,3.5,3.5,4.9,5.2c6.4,7.6,6.1,7.3-1.1,13.8c-3.9,3.5-5.8,3.1-8.9-1c-16.4-21.6-38.2-32.4-65.5-32.1
			c-48.6,0.6-85.7,47-75.1,94.5c6.7,30.1,25.1,50.6,54.6,59.4c29.3,8.7,55.6,1.6,77.9-19.5C603,429.1,605.2,427.1,607.8,424.7z"/>
		<path d="M607.8,424.7c-2.6,2.4-4.8,4.3-6.9,6.3c-22.3,21.1-48.6,28.2-77.9,19.5c-29.5-8.8-47.9-29.2-54.6-59.4
			c-10.6-47.5,26.5-94,75.1-94.5c27.2-0.3,49.1,10.4,65.5,32.1c3.1,4,4.9,4.5,8.9,1c7.2-6.5,7.4-6.2,1.1-13.8
			c-1.4-1.6-3-3.1-4.9-5.2c-2.2,1.9-4.1,3.9-6.4,5.5c-1,0.7-2.6,0.5-4,0.7c0.2-1.3,0.1-2.9,0.8-3.9c1.5-2.1,3.5-3.9,5.5-6
			c-0.6-0.9-1.4-1.5-1.5-2.2c-0.2-2.2-0.1-4.5-0.1-6.7c2.2,0.2,5.4-0.5,6.6,0.7c5.6,5.7,11.4,11.4,15.8,18c3.7,5.6,8,7.4,14.4,7.4
			c56.2-0.2,112.3-0.1,168.5-0.1c9.9,0,9.6-0.1,7.2-9.8c-2.1-8.5-4.5-17.2-4.5-25.9c0-18.7,12.8-32.6,32-36.8
			c19.8-4.3,41.2,5.4,50,22.8c6.7,13.2,5.4,26.3-2.3,38.5c-4.2,6.7-9.1,13.4-15,18.6c-11,9.7-15.4,21.7-15.4,35.9
			c0,36.8,0,73.6-0.2,110.5c0,3.8,1.5,5,5.1,4.9c3.5-0.1,7,0,10.5,0.1c5.1,0.2,7.4,3,7,8.2c-1.1,14.4-11.6,24.7-26.9,26.1
			c-2.2,0.2-4.3,0.2-6.5,0.2c-78,0-156,0.1-233.9-0.1c-5.1,0-10.4-0.7-15.2-2.3c-10.9-3.5-16.8-11.5-18.3-22.8
			c-0.9-6.6,1.6-9.3,8.2-9.4c3-0.1,6-0.2,9-0.1c3.6,0.2,5.3-1.3,5.3-4.9c0-6.2,0-12.5,0-20.3c-4.1,2.4-6.7,3.8-9.2,5.3
			c-13.8,8.5-28.8,13.7-45,15.3c-2.9,0.3-5.2,0.7-5.1,4.5c0.1,3.2,0.2,5.2,4.2,6.5c6.1,1.9,12.3,4.5,17.2,8.4
			c3.4,2.7,5.2,7.8,6.7,12.2c1.1,3.3-1.1,5.8-4.9,5.8c-18.7,0.1-37.3,0.1-56,0c-4.6,0-6.1-2.4-5.2-7.1c1.5-7.7,6.6-12.5,13.4-15.8
			c3.4-1.6,7.1-3.2,10.8-3.8c4.4-0.7,4.1-3.4,4.2-6.5c0.1-3.4-2-4.1-4.8-4.4c-23.5-2.3-43.9-11.5-61.3-27.5
			c-1.9-1.8-3.7-3.8-5.5-5.8c-2-2.2-3.2-4.6-0.6-7c2.4-2.2,4.9-1.5,7,0.7c0.3,0.3,0.8,0.5,1.5,1c1.7-1.5,3.2-3.3,5.1-4.5
			c1.4-0.9,3.3-1.1,5-1.6c-0.6,1.7-0.9,3.5-1.9,5c-1.1,1.8-2.8,3.3-4.6,5.4c3.7,3,7,6,10.6,8.6c32.2,23.2,78.5,22.7,109.8-1.1
			C609.3,445.2,611.9,435.9,607.8,424.7z M842.6,305.4c0.6-0.1,1.3-0.2,1.9-0.3c2,7.5,4,15,6.3,23.6c3.1-3.8,5.5-7.1,8.3-10.1
			c2.6-2.7,3.9-7,8.8-7.3c-3.1,5.3-6.8,10.1-10.7,14.7c-4.1,4.7-7.8,9.5-7.1,16.8c3.9,0.9,8.1,1.8,11.6,2.6
			c4.7-5.6,9-10.6,13.3-15.7c5-6,10.5-11.7,15-18c4.9-6.7,7.7-14.5,6.7-23c-2.4-20.1-23.7-35.6-44-32.1
			c-23.2,3.9-34.9,20.8-29.7,43.7c2.8,12.3,6.6,24.3,10,36.5c0.2,0.9,0.8,2.2,1.5,2.4c3.6,0.9,8.4,3.2,10.8,1.7
			c2.2-1.3,1.9-6.8,2.6-10.5c0.1-0.7-0.4-1.6-0.6-2.4c-1.5-6.1-3.1-12.2-4.5-18.4C842.3,308.3,842.6,306.8,842.6,305.4z
			 M682.5,402.4c3.7,0,5.6,0,7.5,0c25.5,0,51-0.5,76.4,0.2c20.3,0.6,24.3-9,23.5-24.3c-0.1-1.7-0.2-3.3-0.5-5
			c-1.5-8-7.5-13.2-15.8-13.3c-22.8-0.1-45.6-0.1-68.4,0c-9,0.1-15.8,6.8-16,15.8C688.9,384.7,690.4,393.9,682.5,402.4z
			 M789.6,466.5c-1.5-5.4-3.2-10.3-4.1-15.4c-0.7-3.7-0.1-7.6-0.3-11.5c-0.5-8.3-6.6-14.4-14.9-14.4c-23.3-0.1-46.6-0.1-69.9,0
			c-6.9,0-12.6,4.4-14.1,11.2c-0.9,4-0.9,8.2-0.9,12.4c-0.1,11.7,6.2,18,17.7,18c27.3,0,54.6,0,81.9,0
			C786.5,466.7,788.1,466.6,789.6,466.5z M609.4,374.7c0-6.8,0.5-13.7-0.2-20.5c-0.5-5-1.5-10.3-3.9-14.6
			c-13.7-24.6-43.2-38.3-71.3-33.6c-29.9,5-53,28.5-57.9,58.9c-4.6,28.7,10.9,58.7,37.5,72.4c26.7,13.7,59.2,8.9,80.8-12.4
			c9.8-9.6,16.8-20.6,15.1-35.3C608.9,384.8,609.4,379.7,609.4,374.7z M601.1,494.9c-0.3,0.6-0.7,1.3-1,1.9c3.2,2.3,6.1,5.4,9.7,6.7
			c3.9,1.5,8.4,2,12.7,2c76.6,0.1,153.2,0.1,229.9,0.1c3,0,6.1-0.1,8.9-0.8c5.5-1.3,10.5-3.5,13.2-10c-2.6,0-4.4,0-6.2,0
			c-26.8,0-53.6,0-80.4,0c-3.5,0-6.6,0.1-9.3,3.2c-1.4,1.6-4.5,2.2-6.8,2.2c-22.8,0.2-45.6,0.2-68.5,0c-2.6,0-5.2-1.7-7.8-2.7
			c-2.3-0.9-4.6-2.5-6.9-2.5c-27.6-0.2-55.3-0.1-82.9-0.1C604.1,494.9,602.6,494.9,601.1,494.9z M621.6,482.4
			c3.6,1.1,5.3,0.5,5.1-2.9c-0.1-2.5,0.1-5,0.1-7.5c0-40,0-80,0-120c0-9.8,0.9-10.7,10.4-10.7c58.1,0,116.3,0,174.4,0
			c3.8,0,7.7-0.2,11.5-0.2c3.4,0,4.5-1.4,3-5.3c-2.6,0-5.4,0-8.2,0c-61,0-122,0-182.9,0c-9.2,0-13.4,4.2-13.4,13.4
			c0,41.5,0,83,0,124.4C621.6,476.6,621.6,479.4,621.6,482.4z M841.8,478.1c-69.9,0-139.2,0-208.8,0c0.2,1.9,0.3,3.2,0.4,4.6
			c69.7,0,139.1,0,208.4,0C841.8,481,841.8,479.7,841.8,478.1z M847.9,483c2.1-0.1,3.5-0.2,5.1-0.3c0-36.1,0-71.8,0-107.4
			c-4.5-0.9-5,1.4-5,4.7c0,27.1,0,54.3,0,81.4C847.9,468.3,847.9,475.2,847.9,483z M862.1,350.4c-0.3-0.6-0.5-1.3-0.8-1.9
			c-9.7-2.1-19.3-4.2-29-6.4c-0.4,0.4-0.7,0.8-1.1,1.3c1,1.2,1.8,3.1,3,3.4c7.9,2,15.9,3.7,23.9,5.2
			C859.3,352.3,860.7,351,862.1,350.4z M857.8,359.5c0.5-0.4,2-1.1,1.9-1.8c0-0.9-1.1-2.4-2-2.6c-8.2-1.9-16.5-3.7-24.8-5.3
			c-0.9-0.2-1.9,0.9-2.9,1.4c0.7,0.9,1.3,2.4,2.1,2.6C840.4,355.7,848.7,357.5,857.8,359.5z M858.8,364.6c-0.2-0.7-0.3-1.4-0.5-2.1
			c-9.6-2.1-19.3-4.2-28.9-6.3c-0.4,0.5-0.7,0.9-1.1,1.4c1.2,1.2,2.2,3,3.7,3.4c7.2,1.9,14.5,3.5,21.9,4.9
			C855.4,366.2,857.1,365,858.8,364.6z M833.6,364.4c5.8,6.8,10.4,7.7,17.8,3.9C845.4,367,840,365.8,833.6,364.4z"/>
		<path class="st0" d="M842.6,305.4c0,1.4-0.3,2.9,0,4.2c1.4,6.2,3,12.3,4.5,18.4c0.2,0.8,0.8,1.7,0.6,2.4
			c-0.7,3.7-0.4,9.1-2.6,10.5c-2.4,1.5-7.1-0.8-10.8-1.7c-0.7-0.2-1.3-1.5-1.5-2.4c-3.4-12.1-7.2-24.2-10-36.5
			c-5.2-22.9,6.5-39.8,29.7-43.7c20.3-3.4,41.6,12,44,32.1c1,8.5-1.8,16.3-6.7,23c-4.6,6.3-10,12-15,18c-4.3,5.1-8.6,10.1-13.3,15.7
			c-3.5-0.8-7.6-1.7-11.6-2.6c-0.7-7.3,3-12,7.1-16.8c3.9-4.6,7.6-9.4,10.7-14.7c-4.8,0.3-6.2,4.6-8.8,7.3
			c-2.8,2.9-5.2,6.3-8.3,10.1c-2.3-8.5-4.3-16-6.3-23.6C843.8,305.2,843.2,305.3,842.6,305.4z"/>
		<path class="st0" d="M682.5,402.4c7.9-8.5,6.4-17.7,6.7-26.6c0.2-9,7-15.7,16-15.8c22.8-0.1,45.6-0.1,68.4,0
			c8.2,0,14.2,5.2,15.8,13.3c0.3,1.6,0.4,3.3,0.5,5c0.8,15.3-3.2,24.9-23.5,24.3c-25.5-0.7-51-0.2-76.4-0.2
			C688.1,402.4,686.2,402.4,682.5,402.4z"/>
		<path class="st0" d="M789.6,466.5c-1.4,0.1-3,0.2-4.6,0.2c-27.3,0-54.6,0-81.9,0c-11.5,0-17.8-6.3-17.7-18c0-4.1,0-8.4,0.9-12.4
			c1.6-6.8,7.2-11.1,14.1-11.2c23.3-0.1,46.6-0.1,69.9,0c8.3,0,14.4,6.2,14.9,14.4c0.2,3.8-0.4,7.7,0.3,11.5
			C786.3,456.2,788.1,461.1,789.6,466.5z M702.4,445.3c0,0.3,0,0.7,0,1c22,0,44.1,0,66.1,0c0-0.3,0-0.7,0-1
			C746.5,445.3,724.5,445.3,702.4,445.3z M756.4,438.7c0-0.3,0-0.7,0-1c-18,0-36,0-54,0c0,0.3,0,0.7,0,1
			C720.4,438.7,738.4,438.7,756.4,438.7z M745.6,454.5c0-0.3,0-0.7,0-1c-14.4,0-28.8,0-43.2,0c0,0.3,0,0.7,0,1
			C716.8,454.5,731.2,454.5,745.6,454.5z"/>
		<path class="st0" d="M609.4,374.7c0,5-0.5,10,0.1,15c1.7,14.8-5.3,25.7-15.1,35.3c-21.6,21.2-54.1,26.1-80.8,12.4
			c-26.5-13.7-42.1-43.7-37.5-72.4c4.9-30.4,28-53.9,57.9-58.9c28.1-4.7,57.6,8.9,71.3,33.6c2.4,4.3,3.4,9.6,3.9,14.6
			C609.9,361,609.4,367.9,609.4,374.7z M545.3,437.2c34.1,0.1,62.6-27.4,62.5-61.7c-0.2-35.6-28.3-62.1-61.8-62.3
			c-34.6-0.2-62.5,27.5-62.5,61.9C483.4,409.4,511,437.1,545.3,437.2z"/>
		<path class="st0" d="M601.1,494.9c1.5,0,3,0,4.4,0c27.6,0,55.3-0.1,82.9,0.1c2.3,0,4.6,1.7,6.9,2.5c2.6,1,5.2,2.7,7.8,2.7
			c22.8,0.2,45.6,0.2,68.5,0c2.3,0,5.4-0.7,6.8-2.2c2.7-3.1,5.8-3.2,9.3-3.2c26.8,0.1,53.6,0,80.4,0c1.8,0,3.6,0,6.2,0
			c-2.6,6.5-7.7,8.6-13.2,10c-2.9,0.7-5.9,0.8-8.9,0.8c-76.6,0-153.2,0.1-229.9-0.1c-4.3,0-8.8-0.5-12.7-2c-3.6-1.4-6.5-4.4-9.7-6.7
			C600.4,496.1,600.8,495.5,601.1,494.9z"/>
		<path class="st0" d="M621.6,482.4c0-3,0-5.8,0-8.6c0-41.5,0-83,0-124.4c0-9.2,4.2-13.4,13.4-13.4c61,0,122,0,182.9,0
			c2.8,0,5.6,0,8.2,0c1.5,3.9,0.3,5.3-3,5.3c-3.8,0-7.7,0.2-11.5,0.2c-58.1,0-116.3,0-174.4,0c-9.6,0-10.4,0.9-10.4,10.7
			c0,40,0,80,0,120c0,2.5-0.2,5-0.1,7.5C626.9,482.9,625.2,483.5,621.6,482.4z"/>
		<path class="st0" d="M841.8,478.1c0,1.6,0,2.9,0,4.6c-69.4,0-138.7,0-208.4,0c-0.1-1.3-0.2-2.7-0.4-4.6
			C702.6,478.1,771.9,478.1,841.8,478.1z"/>
		<path class="st0" d="M847.9,483c0-7.7,0-14.7,0-21.7c0-27.1,0.1-54.3,0-81.4c0-3.3,0.6-5.6,5-4.7c0,35.6,0,71.4,0,107.4
			C851.5,482.7,850.1,482.8,847.9,483z"/>
		<path class="st0" d="M862.1,350.4c-1.3,0.6-2.8,1.9-4,1.7c-8-1.5-16-3.2-23.9-5.2c-1.2-0.3-2-2.3-3-3.4c0.4-0.4,0.7-0.8,1.1-1.3
			c9.7,2.1,19.3,4.2,29,6.4C861.6,349.2,861.8,349.8,862.1,350.4z"/>
		<path class="st0" d="M857.8,359.5c-9.1-2-17.4-3.7-25.6-5.7c-0.9-0.2-1.4-1.7-2.1-2.6c1-0.5,2.1-1.5,2.9-1.4
			c8.3,1.6,16.5,3.4,24.8,5.3c0.9,0.2,2,1.7,2,2.6C859.8,358.4,858.3,359.1,857.8,359.5z"/>
		<path class="st0" d="M858.8,364.6c-1.7,0.5-3.4,1.6-4.9,1.3c-7.3-1.4-14.6-3-21.9-4.9c-1.4-0.4-2.4-2.2-3.7-3.4
			c0.4-0.5,0.7-0.9,1.1-1.4c9.6,2.1,19.3,4.2,28.9,6.3C858.5,363.2,858.6,363.9,858.8,364.6z"/>
		<path class="st0" d="M833.6,364.4c6.5,1.4,11.9,2.6,17.8,3.9C843.9,372.1,839.4,371.2,833.6,364.4z"/>
		<path d="M702.4,445.3c22,0,44.1,0,66.1,0c0,0.3,0,0.7,0,1c-22,0-44.1,0-66.1,0C702.4,446,702.4,445.7,702.4,445.3z"/>
		<path d="M756.4,438.7c-18,0-36,0-54,0c0-0.3,0-0.7,0-1c18,0,36,0,54,0C756.5,438,756.4,438.3,756.4,438.7z"/>
		<path d="M745.6,454.5c-14.4,0-28.8,0-43.2,0c0-0.3,0-0.7,0-1c14.4,0,28.8,0,43.2,0C745.6,453.8,745.6,454.2,745.6,454.5z"/>
		<path d="M545.3,437.2c-34.3-0.1-61.9-27.8-61.9-62.1c0-34.4,27.9-62.2,62.5-61.9c33.5,0.2,61.6,26.8,61.8,62.3
			C607.9,409.7,579.4,437.2,545.3,437.2z M535.4,389.6c5.6,5.6,11.2,11.2,17.6,17.7c8.1-8.2,16.5-16.5,24.2-24.2
			c-6.6-6.6-12.2-12.2-17.6-17.6C551.7,373.3,543.5,381.5,535.4,389.6z M557.2,412.8c2.7,2.7,7.1,7.3,11.8,11.5c1,0.9,3.8,1,5.1,0.3
			c8.8-4.9,15.7-11.8,20.6-20.5c0.7-1.2,1.1-3.7,0.4-4.4c-4.6-4.9-9.5-9.5-12.5-12.4C574.1,395.8,566,404.1,557.2,412.8z
			 M522.4,378.1c3.1,2.9,5.7,5.5,7.4,7.1c8.9-8.8,17.2-17.1,26.1-26c-1.8-1.5-4.2-3.4-6.3-5.5c-12.1-12-12.4-12-24,0.9
			c-0.1,0.1-0.3,0.2-0.3,0.4c-0.2,1.3-1,2.9-0.5,3.8C528.6,365.7,527.7,371.9,522.4,378.1z M501.3,356.9c5.1-4.4,10.5-6,16.8-3.6
			c0.7,0.3,2,0,2.6-0.6c4.8-4.3,9.6-8.7,14-12.7c-5.2-5.2-10.4-10.4-15.6-15.6c-10.9,5.3-20.3,14.9-24.7,25.4
			C496.6,352.1,498.9,354.5,501.3,356.9z M583.2,332.9c-8.1-6.9-29.4-0.5-38.7,7.3c5.2,5.4,10.5,10.8,15.5,15.9
			C567.6,348.5,575.3,340.8,583.2,332.9z M580.3,376.3c9.8-11.7,13.4-31.1,7.2-38.7c-7.7,7.7-15.4,15.5-22.8,22.9
			C569.7,365.6,575,371,580.3,376.3z M531.4,394.8c-7.7,7.6-15.6,15.3-23.4,22.9c9.4,5.4,29.1,1.4,38.2-7.6
			C541.1,404.8,536,399.5,531.4,394.8z M502,414.3c9-9.3,16.6-17.2,24.6-25.5c-2.6-2.3-5.2-6.4-8.8-7.5c-8.9-2.7-12.7,0-15.6,9.2
			c-0.9,2.8-1.9,5.8-1.8,8.7C500.5,403.9,501.3,408.5,502,414.3z M570.5,324.1c-9.4-7.4-36.2-8.4-44.7-2.1
			c4.7,4.7,9.5,9.5,13.7,13.7C550.1,331.7,560.6,327.8,570.5,324.1z M595.7,348.6c-0.8,10.7-4.9,20-10,29.1
			c-0.7,1.3-1.1,3.8-0.4,4.6c4,4.6,8.5,8.8,13.3,13.7C604.9,379,603.8,363.5,595.7,348.6z M518.1,425.5c16.2,8.1,31.4,8.8,47.7,2.4
			c-3.6-4.2-7.7-7.5-11.5-11.2c-2.4-2.4-4.1-2.9-7.2-1C538.8,420.9,529.6,424.1,518.1,425.5z M492.3,355.3
			c-7.6,12-3.9,39.8,2.6,44.6c1.9-6,3.7-12.2,5.9-18.2c1-2.6,1-4.3-0.5-6.8c-1.5-2.4-2.7-5.8-2.2-8.4
			C499.1,360.9,496.4,357.9,492.3,355.3z M512.3,377c5.8,0,10.2-4.2,10.3-10c0.1-5.8-4.2-10.1-10-10.2c-5.8,0-10.3,4.3-10.4,9.9
			C502.1,372.4,506.6,377,512.3,377z"/>
		<path class="st0" d="M535.4,389.6c8.1-8.1,16.4-16.3,24.2-24.1c5.4,5.4,11,11,17.6,17.6c-7.7,7.7-16,16.1-24.2,24.2
			C546.5,400.9,540.9,395.3,535.4,389.6z"/>
		<path class="st0" d="M557.2,412.8c8.7-8.8,16.9-17,25.5-25.6c2.9,2.9,7.9,7.5,12.5,12.4c0.7,0.7,0.3,3.2-0.4,4.4
			c-5,8.7-11.8,15.7-20.6,20.5c-1.3,0.7-4.1,0.6-5.1-0.3C564.3,420.1,560,415.5,557.2,412.8z"/>
		<path class="st0" d="M522.4,378.1c5.2-6.3,6.2-12.5,2.4-19.3c-0.5-0.9,0.3-2.5,0.5-3.8c0-0.1,0.2-0.2,0.3-0.4
			c11.6-12.9,11.9-12.9,24-0.9c2.1,2.1,4.5,3.9,6.3,5.5c-8.9,8.9-17.2,17.2-26.1,26C528.2,383.6,525.5,381.1,522.4,378.1z"/>
		<path class="st0" d="M501.3,356.9c-2.4-2.5-4.7-4.8-7-7.1c4.5-10.5,13.9-20.1,24.7-25.4c5.2,5.2,10.4,10.4,15.6,15.6
			c-4.4,4-9.2,8.4-14,12.7c-0.6,0.5-1.9,0.8-2.6,0.6C511.8,350.9,506.4,352.5,501.3,356.9z"/>
		<path class="st0" d="M583.2,332.9c-7.9,7.9-15.6,15.6-23.2,23.1c-5-5.1-10.3-10.5-15.5-15.9C553.8,332.4,575.1,326,583.2,332.9z"
			/>
		<path class="st0" d="M580.3,376.3c-5.3-5.4-10.6-10.8-15.6-15.9c7.4-7.4,15.1-15.2,22.8-22.9C593.7,345.2,590.1,364.6,580.3,376.3
			z"/>
		<path class="st0" d="M531.4,394.8c4.5,4.6,9.7,10,14.9,15.3c-9.2,9-28.8,13-38.2,7.6C515.9,410.1,523.7,402.4,531.4,394.8z"/>
		<path class="st0" d="M502,414.3c-0.7-5.8-1.6-10.4-1.6-15c0-2.9,1-5.9,1.8-8.7c2.8-9.2,6.6-11.9,15.6-9.2c3.6,1.1,6.2,5.2,8.8,7.5
			C518.6,397,511,405,502,414.3z"/>
		<path class="st0" d="M570.5,324.1c-10,3.7-20.4,7.6-31,11.6c-4.1-4.1-8.9-8.9-13.7-13.7C534.4,315.7,561.2,316.7,570.5,324.1z"/>
		<path class="st0" d="M595.7,348.6c8.1,15,9.3,30.4,3,47.4c-4.8-4.9-9.3-9.1-13.3-13.7c-0.7-0.8-0.3-3.3,0.4-4.6
			C590.7,368.6,594.8,359.2,595.7,348.6z"/>
		<path class="st0" d="M518.1,425.5c11.4-1.4,20.7-4.6,29.1-9.8c3.1-1.9,4.8-1.4,7.2,1c3.7,3.8,7.9,7.1,11.5,11.2
			C549.6,434.3,534.3,433.6,518.1,425.5z"/>
		<path class="st0" d="M492.3,355.3c4.1,2.6,6.8,5.6,5.7,11.3c-0.5,2.6,0.8,6,2.2,8.4c1.5,2.5,1.5,4.2,0.5,6.8
			c-2.2,6-4,12.2-5.9,18.2C488.4,395.1,484.8,367.3,492.3,355.3z"/>
		<path class="st0" d="M512.3,377c-5.7,0-10.2-4.6-10.1-10.2c0.1-5.6,4.6-10,10.4-9.9c5.8,0,10.1,4.4,10,10.2
			C522.5,372.8,518.1,377.1,512.3,377z"/>
	</g>
</g>
</svg>
